<svg xmlns="http://www.w3.org/2000/svg" viewBox="0 0 32 32" aria-hidden="true">
  <defs>
    <linearGradient id="vg" x1="0%" y1="0%" x2="100%" y2="100%">
      <stop offset="0%" stop-color="#22d3ee"/>
      <stop offset="100%" stop-color="#06b6d4"/>
    </linearGradient>
  </defs>
  <rect width="32" height="32" rx="8" fill="url(#vg)"/>
  <!-- Download / grab: arrow down into base -->
  <path fill="white" fill-rule="evenodd" d="M16 6a1 1 0 0 1 .707.293l4 4a1 1 0 1 1-1.414 1.414L17 9.414V20a1 1 0 1 1-2 0V9.414l-2.293 2.293a1 1 0 0 1-1.414-1.414l4-4A1 1 0 0 1 16 6Z"/>
  <path fill="white" fill-rule="evenodd" d="M8 22a1 1 0 0 1 1 1v2h14v-2a1 1 0 1 1 2 0v2a1 1 0 0 1-1 1H8a1 1 0 0 1-1-1v-2a1 1 0 0 1 1-1Z"/>
</svg>
