<svg xmlns="http://www.w3.org/2000/svg" viewBox="0 0 220 48" fill="none" aria-hidden="true">
  <defs>
    <linearGradient id="vg-logo" x1="0%" y1="0%" x2="100%" y2="100%">
      <stop offset="0%" stop-color="#22d3ee"/>
      <stop offset="100%" stop-color="#06b6d4"/>
    </linearGradient>
  </defs>
  <style>
    .wordmark { fill: #18181b; }
    @media (prefers-color-scheme: dark) { .wordmark { fill: #fafafa; } }
  </style>
  <!-- Icon: 40x40 with 8px margin -->
  <rect x="0" y="4" width="40" height="40" rx="10" fill="url(#vg-logo)"/>
  <path fill="white" fill-rule="evenodd" d="M20 14a1 1 0 0 1 .707.293l3 3a1 1 0 1 1-1.414 1.414L21 17.414V26a1 1 0 1 1-2 0V17.414l-1.293 1.293a1 1 0 0 1-1.414-1.414l3-3A1 1 0 0 1 20 14Z"/>
  <path fill="white" fill-rule="evenodd" d="M12 30a1 1 0 0 1 1 1v2h14v-2a1 1 0 1 1 2 0v2a1 1 0 0 1-1 1H12a1 1 0 0 1-1-1v-2a1 1 0 0 1 1-1Z"/>
  <!-- Wordmark -->
  <text class="wordmark" x="52" y="32" font-family="system-ui, -apple-system, sans-serif" font-size="22" font-weight="700">Video Grab</text>
</svg>
